# xmcd
#
# Track frame offsets:
#	150
#	16914
#	34875
#	57929
#	75414
#	93716
#	109207
#	128264
#	140695
#	157459
#	175420
#	198474
#	215959
#	234261
#	249752
#	268809
#	292490
#
# Disc length: 3905 seconds
#
# Revision: 1
# Processed by: cddbd v1.5.2PL0 Copyright (c) Steve Scherf et al.
# Submitted via: audiograbber 1.83.01
#
DISCID=020f3f11
DTITLE=Top Tunes Country Multiplex - TTM 078
DYEAR=1900
DGENRE=Karaoke
TTITLE0=Emmylou Harris - Boulder To Birmingham
TTITLE1=Ralph Stanley - Girl From The Greenbriar Shore
TTITLE2=Steve Earle - Goodbye
TTITLE3=Cledus T. Judd - It's A Great Day To Be A Guy
TTITLE4=Delbert McClinton - Lone Star Blues
TTITLE5=Gene Watson - No Trash In My Trailer
TTITLE6=Trick Pony - Now Would Be The Time
TTITLE7=Cledus T. Judd - Tree's On Fire
TTITLE8=Emmylou Harris - Boulder To Birmingham (vocals)
TTITLE9=Ralph Stanley - Girl From The Greenbriar Shore (vocals)
TTITLE10=Steve Earle - Goodbye (vocals)
TTITLE11=Cledus T. Judd - It's A Great Day To Be A Guy (vocals)
TTITLE12=Delbert McClinton - Lone Star Blues (vocals)
TTITLE13=Gene Watson - No Trash In My Trailer (vocals)
TTITLE14=Trick Pony - Now Would Be The Time (vocals)
TTITLE15=Cledus T. Judd - Tree's On Fire (vocals)
TTITLE16=Top Tunes - Data Track
EXTD=
EXTT0=
EXTT1=
EXTT2=
EXTT3=
EXTT4=
EXTT5=
EXTT6=
EXTT7=
EXTT8=
EXTT9=
EXTT10=
EXTT11=
EXTT12=
EXTT13=
EXTT14=
EXTT15=
EXTT16=
PLAYORDER=
